<svg width="285" height="285" viewBox="0 0 285 285" fill="none" xmlns="http://www.w3.org/2000/svg">
<rect y="0.00012207" width="285" height="285" rx="58" fill="#D2D2D2"/>
<path d="M53.275 211H55.975V246H53.275V228.6H33.7V246H31V211H33.7V225.9H53.275V211ZM89.6355 221H92.3355V246H89.6355L89.5605 240.875C88.7105 242.608 87.4939 244.008 85.9105 245.075C84.3439 246.125 82.4605 246.65 80.2605 246.65C78.4439 246.65 76.7355 246.308 75.1355 245.625C73.5522 244.925 72.1522 243.975 70.9355 242.775C69.7189 241.558 68.7689 240.158 68.0855 238.575C67.4022 236.975 67.0605 235.258 67.0605 233.425C67.0605 231.608 67.3939 229.908 68.0605 228.325C68.7439 226.742 69.6855 225.35 70.8855 224.15C72.0855 222.933 73.4772 221.992 75.0605 221.325C76.6439 220.642 78.3355 220.3 80.1355 220.3C82.3522 220.3 84.2689 220.842 85.8855 221.925C87.5189 222.992 88.7939 224.392 89.7105 226.125L89.6355 221ZM80.2355 244C82.1522 244 83.7939 243.533 85.1605 242.6C86.5439 241.65 87.6022 240.375 88.3355 238.775C89.0689 237.175 89.4355 235.417 89.4355 233.5C89.4355 231.533 89.0605 229.758 88.3105 228.175C87.5772 226.575 86.5189 225.308 85.1355 224.375C83.7689 223.425 82.1355 222.95 80.2355 222.95C78.3022 222.95 76.5439 223.425 74.9605 224.375C73.3939 225.325 72.1439 226.6 71.2105 228.2C70.2772 229.8 69.8105 231.567 69.8105 233.5C69.8105 235.467 70.2855 237.242 71.2355 238.825C72.2022 240.408 73.4772 241.667 75.0605 242.6C76.6439 243.533 78.3689 244 80.2355 244ZM124.42 223.7L106.845 243.3H124.42V246H103.07V243.3L120.645 223.7H103.07V221H124.42V223.7ZM156.512 223.7L138.937 243.3H156.512V246H135.162V243.3L152.737 223.7H135.162V221H156.512V223.7ZM189.182 221H191.882V246H189.182L189.107 240.875C188.257 242.608 187.041 244.008 185.457 245.075C183.891 246.125 182.007 246.65 179.807 246.65C177.991 246.65 176.282 246.308 174.682 245.625C173.099 244.925 171.699 243.975 170.482 242.775C169.266 241.558 168.316 240.158 167.632 238.575C166.949 236.975 166.607 235.258 166.607 233.425C166.607 231.608 166.941 229.908 167.607 228.325C168.291 226.742 169.232 225.35 170.432 224.15C171.632 222.933 173.024 221.992 174.607 221.325C176.191 220.642 177.882 220.3 179.682 220.3C181.899 220.3 183.816 220.842 185.432 221.925C187.066 222.992 188.341 224.392 189.257 226.125L189.182 221ZM179.782 244C181.699 244 183.341 243.533 184.707 242.6C186.091 241.65 187.149 240.375 187.882 238.775C188.616 237.175 188.982 235.417 188.982 233.5C188.982 231.533 188.607 229.758 187.857 228.175C187.124 226.575 186.066 225.308 184.682 224.375C183.316 223.425 181.682 222.95 179.782 222.95C177.849 222.95 176.091 223.425 174.507 224.375C172.941 225.325 171.691 226.6 170.757 228.2C169.824 229.8 169.357 231.567 169.357 233.5C169.357 235.467 169.832 237.242 170.782 238.825C171.749 240.408 173.024 241.667 174.607 242.6C176.191 243.533 177.916 244 179.782 244ZM203.617 246V221H206.317V224.825C207.217 223.442 208.409 222.342 209.892 221.525C211.376 220.708 212.992 220.3 214.742 220.3C215.726 220.3 216.667 220.425 217.567 220.675L216.442 223.325C215.726 223.125 215.026 223.025 214.342 223.025C212.876 223.025 211.534 223.383 210.317 224.1C209.101 224.817 208.126 225.783 207.392 227C206.676 228.217 206.317 229.567 206.317 231.05V246H203.617ZM247.263 208.5H249.963V246H247.263V240.85C246.396 242.6 245.163 244.008 243.563 245.075C241.963 246.125 240.054 246.65 237.838 246.65C236.021 246.65 234.321 246.308 232.738 245.625C231.154 244.942 229.754 244 228.538 242.8C227.338 241.583 226.396 240.183 225.713 238.6C225.029 237.017 224.688 235.317 224.688 233.5C224.688 231.683 225.029 229.983 225.713 228.4C226.396 226.8 227.338 225.4 228.538 224.2C229.754 222.983 231.154 222.033 232.738 221.35C234.321 220.667 236.021 220.325 237.838 220.325C240.054 220.325 241.963 220.858 243.563 221.925C245.163 222.975 246.396 224.367 247.263 226.1V208.5ZM237.863 244C239.779 244 241.421 243.533 242.788 242.6C244.171 241.65 245.229 240.375 245.963 238.775C246.696 237.175 247.063 235.417 247.063 233.5C247.063 231.533 246.688 229.758 245.938 228.175C245.204 226.575 244.146 225.308 242.763 224.375C241.396 223.425 239.763 222.95 237.863 222.95C235.946 222.95 234.196 223.425 232.613 224.375C231.046 225.325 229.788 226.6 228.838 228.2C227.904 229.8 227.438 231.567 227.438 233.5C227.438 235.467 227.913 237.242 228.863 238.825C229.829 240.408 231.104 241.667 232.688 242.6C234.271 243.533 235.996 244 237.863 244Z" fill="url(#paint0_linear_26_1632)"/>
<path d="M194.4 184V23.2H180.4V84.8C180.4 90.6 173 92.2 166.6 92.2H116.4C110.8 92.2 105.6 93 102.6 95.2V23.2H88.6V184H102.6V113.8C102.6 109 109.8 106.4 116.4 106.4H167.4C172.6 106.2 177.6 105.6 180.2 103.6V184H194.4Z" fill="url(#paint1_linear_26_1632)"/>
<defs>
<linearGradient id="paint0_linear_26_1632" x1="199.867" y1="347.435" x2="195.387" y2="139.763" gradientUnits="userSpaceOnUse">
<stop offset="0.110184" stop-color="white"/>
<stop offset="0.749552"/>
<stop offset="0.890625"/>
</linearGradient>
<linearGradient id="paint1_linear_26_1632" x1="98.5" y1="34" x2="199.5" y2="277.5" gradientUnits="userSpaceOnUse">
<stop/>
<stop offset="1" stop-opacity="0"/>
</linearGradient>
</defs>
</svg>
